<?xml version="1.0" encoding="UTF-8" standalone="no"?>
<!-- Created with Inkscape (http://www.inkscape.org/) -->

<svg
   width="512"
   height="512"
   viewBox="0 0 512 512"
   version="1.1"
   id="svg1"
   xml:space="preserve"
   inkscape:version="1.4.3 (0d15f75042, 2025-12-25)"
   sodipodi:docname="logo_dark_fill.svg"
   inkscape:export-filename="logo_light_fill.png"
   inkscape:export-xdpi="96"
   inkscape:export-ydpi="96"
   xmlns:inkscape="http://www.inkscape.org/namespaces/inkscape"
   xmlns:sodipodi="http://sodipodi.sourceforge.net/DTD/sodipodi-0.dtd"
   xmlns="http://www.w3.org/2000/svg"
   xmlns:svg="http://www.w3.org/2000/svg"><sodipodi:namedview
     id="namedview1"
     pagecolor="#ffffff"
     bordercolor="#000000"
     borderopacity="0.25"
     inkscape:showpageshadow="2"
     inkscape:pageopacity="0.0"
     inkscape:pagecheckerboard="0"
     inkscape:deskcolor="#d1d1d1"
     inkscape:document-units="px"
     inkscape:zoom="0.70751955"
     inkscape:cx="-224.02208"
     inkscape:cy="371.01448"
     inkscape:window-width="1920"
     inkscape:window-height="1128"
     inkscape:window-x="0"
     inkscape:window-y="0"
     inkscape:window-maximized="1"
     inkscape:current-layer="layer1" /><defs
     id="defs1"><inkscape:path-effect
       effect="mirror_symmetry"
       start_point="256,150"
       end_point="256,260"
       center_point="256,205"
       id="path-effect11"
       is_visible="true"
       lpeversion="1.2"
       lpesatellites=""
       mode="free"
       discard_orig_path="false"
       fuse_paths="false"
       oposite_fuse="false"
       split_items="false"
       split_open="false"
       link_styles="false" /><inkscape:path-effect
       effect="mirror_symmetry"
       start_point="256,160"
       end_point="256,260"
       center_point="256,210"
       id="path-effect8"
       is_visible="true"
       lpeversion="1.2"
       lpesatellites=""
       mode="free"
       discard_orig_path="false"
       fuse_paths="false"
       oposite_fuse="false"
       split_items="false"
       split_open="false"
       link_styles="false" /><inkscape:path-effect
       effect="mirror_symmetry"
       start_point="256,60"
       end_point="256,250"
       center_point="256,155"
       id="path-effect7"
       is_visible="true"
       lpeversion="1.2"
       lpesatellites=""
       mode="free"
       discard_orig_path="false"
       fuse_paths="false"
       oposite_fuse="false"
       split_items="false"
       split_open="false"
       link_styles="false" /><inkscape:path-effect
       effect="mirror_symmetry"
       start_point="256,238.56"
       end_point="256,311.43953"
       center_point="256,274.99977"
       id="path-effect6"
       is_visible="true"
       lpeversion="1.2"
       lpesatellites=""
       mode="free"
       discard_orig_path="false"
       fuse_paths="false"
       oposite_fuse="false"
       split_items="false"
       split_open="false"
       link_styles="false" /><inkscape:path-effect
       effect="mirror_symmetry"
       start_point="256,200"
       end_point="256,400"
       center_point="256,300"
       id="path-effect5"
       is_visible="true"
       lpeversion="1.2"
       lpesatellites=""
       mode="free"
       discard_orig_path="false"
       fuse_paths="false"
       oposite_fuse="false"
       split_items="false"
       split_open="false"
       link_styles="false" /></defs><g
     inkscape:label="Layer 1"
     inkscape:groupmode="layer"
     id="layer1"><path
       id="rect1"
       style="fill:#000000;stroke:#000000;stroke-width:8;stroke-linecap:butt;stroke-linejoin:round;stroke-dasharray:none;stroke-opacity:1;fill-opacity:1"
       d="M 148.67773 112.67773 L 148.67773 457.32227 L 363.32227 457.32227 L 363.32227 112.67773 L 148.67773 112.67773 z M 169.05664 133.05664 L 342.94336 133.05664 L 342.94336 276.94336 L 169.05664 276.94336 L 169.05664 133.05664 z M 256 331.95312 A 42.047279 42.047279 0 0 1 298.04688 374 A 42.047279 42.047279 0 0 1 256 416.04688 A 42.047279 42.047279 0 0 1 213.95312 374 A 42.047279 42.047279 0 0 1 256 331.95312 z " /><path
       id="path4"
       style="fill:#000000;fill-opacity:1;stroke:#000000;stroke-width:8;stroke-linecap:butt;stroke-linejoin:round;stroke-dasharray:none;stroke-opacity:1"
       d="M 97.5 201.50781 C 85.968726 201.50781 75.908073 216.44126 70.570312 238.59766 C 54.147914 239.4672 41.060547 255.43252 41.060547 275 C 41.060547 294.56748 54.147913 310.5328 70.570312 311.40234 C 75.908074 333.55874 85.968727 348.49219 97.5 348.49219 C 114.61655 348.49219 128.49219 315.58866 128.49219 275 C 128.49219 234.41134 114.61655 201.50781 97.5 201.50781 z M 414.5 201.50781 C 397.38345 201.50781 383.50781 234.41134 383.50781 275 C 383.50781 315.58866 397.38345 348.49219 414.5 348.49219 C 426.03127 348.49219 436.09193 333.55874 441.42969 311.40234 C 457.85209 310.5328 470.93945 294.56748 470.93945 275 C 470.93945 255.43252 457.85209 239.4672 441.42969 238.59766 C 436.09193 216.44126 426.03127 201.50781 414.5 201.50781 z " /><path
       style="fill:none;fill-opacity:1;stroke:#000000;stroke-width:16;stroke-linecap:butt;stroke-linejoin:round;stroke-dasharray:none;stroke-opacity:1"
       d="m 69.770186,238.33954 c 4.320326,-8.72437 0.364956,-26.77873 9.389377,-58.28005 C 86.436816,154.65697 118.16024,108.67885 135.56704,95.271623 155.20096,80.149001 227.06887,62.24468 256,61.766736 M 442.22981,238.33954 c -4.32032,-8.72437 -0.36495,-26.77873 -9.38937,-58.28005 C 425.56318,154.65697 393.83976,108.67885 376.43296,95.271623 356.79904,80.149001 284.93113,62.24468 256,61.766736"
       id="path5"
       sodipodi:nodetypes="cssc"
       inkscape:path-effect="#path-effect7"
       inkscape:original-d="m 69.770186,238.33954 c 4.320326,-8.72437 0.364956,-26.77873 9.389377,-58.28005 C 86.436816,154.65697 118.16024,108.67885 135.56704,95.271623 155.20096,80.149001 227.06887,62.24468 256,61.766736" /><path
       style="fill:#000000;fill-opacity:1;stroke:#000000;stroke-width:9.12000626;stroke-linecap:round;stroke-linejoin:round;stroke-dasharray:none;stroke-opacity:1"
       d="m 195,160 h -10 v 100 h 71 c -4.14701,-18.39103 -61,-18 -61,-18 v -92 m 122,10 h 10 v 100 h -71 c 4.14701,-18.39103 61,-18 61,-18 v -92"
       id="path7"
       sodipodi:nodetypes="cccccc"
       inkscape:original-d="m 195,160 h -10 v 100 h 71 c -4.14701,-18.39103 -61,-18 -61,-18 v -92"
       inkscape:path-effect="#path-effect8"
       transform="matrix(0.87719176,0,0,0.877193,31.438908,30.175436)" /><path
       style="fill:none;fill-opacity:1;stroke:#000000;stroke-width:9.12000626;stroke-linecap:round;stroke-linejoin:round;stroke-dasharray:none;stroke-opacity:1"
       d="m 256,260 v -88 c 0,0 -11.27902,-19.00175 -61,-22 m 61,110 v -88 c 0,0 11.27902,-19.00175 61,-22"
       id="path8"
       sodipodi:nodetypes="ccc"
       inkscape:path-effect="#path-effect11"
       inkscape:original-d="m 256,260 v -88 c 0,0 -11.27902,-19.00175 -61,-22"
       transform="matrix(0.87719176,0,0,0.877193,31.438908,30.175436)" /><path
       style="fill:#000000;fill-opacity:1;stroke:#000000;stroke-width:8;stroke-linecap:round;stroke-linejoin:round;stroke-dasharray:none;stroke-opacity:1"
       d="m 242.00002,353.58663 v 39.99996 l 34.64036,-19.99998 z"
       id="path11"
       sodipodi:nodetypes="cccc" /></g><g
     inkscape:groupmode="layer"
     id="layer2"
     inkscape:label="Layer 2" /></svg>
